 <svg width="26" height="26" viewBox="0 0 26 26" fill="none" xmlns="http://www.w3.org/2000/svg">
<rect width="26" height="26" rx="13" fill="white"/>
<path d="M8.97674 22.2326C8.97674 22.7013 9.16296 23.1509 9.49442 23.4823C9.82588 23.8138 10.2754 24 10.7442 24C11.2129 24 11.6625 23.8138 11.994 23.4823C12.3254 23.1509 12.5116 22.7013 12.5116 22.2326M15.1628 22.2326C15.1628 22.7013 15.349 23.1509 15.6805 23.4823C16.0119 23.8138 16.4615 24 16.9302 24C17.399 24 17.8485 23.8138 18.18 23.4823C18.5115 23.1509 18.6977 22.7013 18.6977 22.2326M10.3023 10.3023H24V10.5233L23.7888 10.7733C21.642 13.3229 20.4648 16.5489 20.4651 19.8819V20.0233H8.97674V18.3619C8.97674 16.5237 8.91842 14.6873 8.63563 12.8722C8.14605 9.72967 7.06526 5 5 5" stroke="black" stroke-width="0.883721"/>
</svg>
