<svg width="32" height="20" viewBox="0 0 32 20" fill="none" xmlns="http://www.w3.org/2000/svg">
<path d="M27.2474 14.1598C26.3471 14.1598 25.5295 13.9927 24.7946 13.6583C24.0523 13.3275 23.4588 12.8131 23.0142 12.1149C22.5696 11.4167 22.3473 10.5367 22.3473 9.47469C22.3473 8.62952 22.5218 7.87255 22.8709 7.20376C23.22 6.53498 23.7271 6.01134 24.3922 5.63286C25.061 5.25069 25.8473 5.05961 26.7513 5.05961C27.1335 5.05961 27.5046 5.12392 27.8647 5.25253C28.2285 5.38114 28.5151 5.56855 28.7246 5.81475L28.9065 5.23048H30.8136V8.466H29.1104C28.9965 8.003 28.7779 7.65207 28.4545 7.41322C28.1311 7.17437 27.7931 7.05494 27.4403 7.05494C26.8524 7.05494 26.3875 7.26991 26.0458 7.69984C25.704 8.12977 25.5332 8.72139 25.5332 9.47469C25.5332 10.2353 25.7022 10.8325 26.0403 11.2661C26.3783 11.696 26.856 11.911 27.4734 11.911C27.6204 11.911 27.7784 11.8963 27.9474 11.8669C28.0723 11.8448 28.1899 11.8154 28.3002 11.7787C28.4104 11.7383 28.4839 11.7144 28.5206 11.707V10.9298H27.4623V9.29279H30.9955V13.2338C30.4296 13.5352 29.8233 13.7648 29.1766 13.9228C28.5298 14.0808 27.8868 14.1598 27.2474 14.1598Z" fill="white"/>
<line x1="25.5" y1="18" x2="25.5" y2="2.18557e-08" stroke="white"/>
<line x1="28.5" y1="18" x2="28.5" y2="2.18557e-08" stroke="white"/>
<path d="M4.59146 12.2141V14H0.788209V12.2031L1.28428 12.2141V8.76365H0.380325V7.34156L4.02924 6.42658L4.06231 12.2141H4.59146ZM8.79708 14.1488C7.72041 14.1488 6.88075 13.7997 6.27811 13.1016C5.67547 12.3997 5.37415 11.4241 5.37415 10.1747C5.37415 8.99147 5.67364 8.07098 6.2726 7.41322C6.87157 6.75546 7.70755 6.42658 8.78054 6.42658C9.85721 6.42658 10.695 6.75546 11.294 7.41322C11.893 8.07098 12.1924 8.99147 12.1924 10.1747C12.1924 11.0052 12.0583 11.7162 11.7901 12.3078C11.5218 12.9031 11.1323 13.3588 10.6215 13.6748C10.1108 13.9908 9.50261 14.1488 8.79708 14.1488ZM9.49709 10.329C9.49709 9.87338 9.47688 9.5096 9.43646 9.23767C9.39237 8.97677 9.31887 8.7912 9.21598 8.68097C9.11677 8.57073 8.97713 8.51561 8.79708 8.51561C8.606 8.51561 8.45717 8.57073 8.35061 8.68097C8.22567 8.8059 8.14299 9.01536 8.10257 9.30933C8.06582 9.59962 8.04745 9.93585 8.04745 10.318C8.04745 10.781 8.07134 11.1319 8.11911 11.3708C8.1632 11.6243 8.23669 11.8062 8.33958 11.9165C8.44615 12.0267 8.58946 12.0818 8.76952 12.0818C8.9606 12.0818 9.10758 12.0267 9.21047 11.9165C9.32439 11.7915 9.39972 11.5876 9.43646 11.3047C9.47688 11.0217 9.49709 10.6965 9.49709 10.329ZM16.4146 14.1488C15.3379 14.1488 14.4983 13.7997 13.8956 13.1016C13.293 12.3997 12.9917 11.4241 12.9917 10.1747C12.9917 8.99147 13.2912 8.07098 13.8901 7.41322C14.4891 6.75546 15.3251 6.42658 16.3981 6.42658C17.4747 6.42658 18.3125 6.75546 18.9115 7.41322C19.5105 8.07098 19.81 8.99147 19.81 10.1747C19.81 11.0052 19.6758 11.7162 19.4076 12.3078C19.1393 12.9031 18.7498 13.3588 18.2391 13.6748C17.7283 13.9908 17.1201 14.1488 16.4146 14.1488ZM17.1146 10.329C17.1146 9.87338 17.0944 9.5096 17.054 9.23767C17.0099 8.97677 16.9364 8.7912 16.8335 8.68097C16.7343 8.57073 16.5947 8.51561 16.4146 8.51561C16.2235 8.51561 16.0747 8.57073 15.9681 8.68097C15.8432 8.8059 15.7605 9.01536 15.7201 9.30933C15.6833 9.59962 15.665 9.93585 15.665 10.318C15.665 10.781 15.6889 11.1319 15.7366 11.3708C15.7807 11.6243 15.8542 11.8062 15.9571 11.9165C16.0637 12.0267 16.207 12.0818 16.387 12.0818C16.5781 12.0818 16.7251 12.0267 16.828 11.9165C16.9419 11.7915 17.0172 11.5876 17.054 11.3047C17.0944 11.0217 17.1146 10.6965 17.1146 10.329Z" fill="white"/>
</svg>
