<svg width="28" height="23" viewBox="0 0 28 23" fill="none" xmlns="http://www.w3.org/2000/svg">
<path d="M17.92 5.6L19.6 7.28L10.08 16.8L8.4 15.12L17.92 5.6ZM2.8 0H25.2C26.754 0 28 1.246 28 2.8V8.4C27.2574 8.4 26.5452 8.695 26.0201 9.2201C25.495 9.7452 25.2 10.4574 25.2 11.2C25.2 11.9426 25.495 12.6548 26.0201 13.1799C26.5452 13.705 27.2574 14 28 14V19.6C28 21.154 26.754 22.4 25.2 22.4H2.8C2.05739 22.4 1.3452 22.105 0.820101 21.5799C0.294999 21.0548 0 20.3426 0 19.6V14C1.554 14 2.8 12.754 2.8 11.2C2.8 10.4574 2.505 9.7452 1.9799 9.2201C1.4548 8.695 0.742606 8.4 0 8.4V2.8C0 2.05739 0.294999 1.3452 0.820101 0.820101C1.3452 0.294999 2.05739 0 2.8 0ZM2.8 2.8V6.356C3.65075 6.84656 4.3573 7.55253 4.84856 8.40287C5.33982 9.25322 5.59846 10.2179 5.59846 11.2C5.59846 12.1821 5.33982 13.1468 4.84856 13.9971C4.3573 14.8475 3.65075 15.5534 2.8 16.044V19.6H25.2V16.044C24.3492 15.5534 23.6427 14.8475 23.1514 13.9971C22.6602 13.1468 22.4015 12.1821 22.4015 11.2C22.4015 10.2179 22.6602 9.25322 23.1514 8.40287C23.6427 7.55253 24.3492 6.84656 25.2 6.356V2.8H2.8ZM10.5 5.6C11.662 5.6 12.6 6.538 12.6 7.7C12.6 8.862 11.662 9.8 10.5 9.8C9.338 9.8 8.4 8.862 8.4 7.7C8.4 6.538 9.338 5.6 10.5 5.6ZM17.5 12.6C18.662 12.6 19.6 13.538 19.6 14.7C19.6 15.862 18.662 16.8 17.5 16.8C16.338 16.8 15.4 15.862 15.4 14.7C15.4 13.538 16.338 12.6 17.5 12.6Z" fill="black"/>
</svg>
