<svg width="57" height="33" viewBox="0 0 57 33" fill="none" xmlns="http://www.w3.org/2000/svg">
<path d="M34.4659 22.2579C33.0134 22.2579 31.6943 21.9881 30.5086 21.4486C29.3111 20.9151 28.3536 20.0851 27.6363 18.9587C26.9189 17.8323 26.5602 16.4124 26.5602 14.699C26.5602 13.3355 26.8418 12.1142 27.4051 11.0352C27.9683 9.95621 28.7864 9.1114 29.8595 8.50076C30.9385 7.8842 32.2072 7.57591 33.6656 7.57591C34.2821 7.57591 34.8809 7.67966 35.4619 7.88716C36.0488 8.09466 36.5113 8.39701 36.8492 8.79422L37.1427 7.85159H40.2196V13.0717H37.4717C37.2879 12.3247 36.9352 11.7585 36.4134 11.3731C35.8917 10.9878 35.3463 10.7951 34.7772 10.7951C33.8286 10.7951 33.0787 11.1419 32.5273 11.8356C31.9759 12.5292 31.7003 13.4837 31.7003 14.699C31.7003 15.9262 31.973 16.8896 32.5184 17.5892C33.0638 18.2828 33.8345 18.6296 34.8305 18.6296C35.0677 18.6296 35.3226 18.6059 35.5953 18.5585C35.7969 18.5229 35.9866 18.4755 36.1644 18.4162C36.3423 18.351 36.4609 18.3125 36.5202 18.3006V17.0467H34.8127V14.4056H40.513V20.7639C39.6 21.25 38.6218 21.6206 37.5784 21.8755C36.535 22.1304 35.4975 22.2579 34.4659 22.2579ZM49.7793 22.2579C48.3268 22.2579 47.0077 21.9881 45.822 21.4486C44.6244 20.9151 43.667 20.0851 42.9496 18.9587C42.2323 17.8323 41.8736 16.4124 41.8736 14.699C41.8736 13.3355 42.1552 12.1142 42.7184 11.0352C43.2816 9.95621 44.0998 9.1114 45.1728 8.50076C46.2518 7.8842 47.5205 7.57591 48.9789 7.57591C49.5955 7.57591 50.1943 7.67966 50.7753 7.88716C51.3622 8.09466 51.8246 8.39701 52.1626 8.79422L52.456 7.85159H55.5329V13.0717H52.785C52.6013 12.3247 52.2485 11.7585 51.7268 11.3731C51.2051 10.9878 50.6597 10.7951 50.0905 10.7951C49.142 10.7951 48.392 11.1419 47.8407 11.8356C47.2893 12.5292 47.0136 13.4837 47.0136 14.699C47.0136 15.9262 47.2863 16.8896 47.8318 17.5892C48.3772 18.2828 49.1479 18.6296 50.1439 18.6296C50.381 18.6296 50.636 18.6059 50.9087 18.5585C51.1102 18.5229 51.3 18.4755 51.4778 18.4162C51.6557 18.351 51.7742 18.3125 51.8335 18.3006V17.0467H50.1261V14.4056H55.8264V20.7639C54.9134 21.25 53.9352 21.6206 52.8918 21.8755C51.8483 22.1304 50.8109 22.2579 49.7793 22.2579Z" fill="white"/>
<path d="M17.7476 13.2473C17.7476 13.4589 17.6635 13.6619 17.5139 13.8115C17.3642 13.9611 17.1613 14.0452 16.9497 14.0452C16.7381 14.0452 16.5351 13.9611 16.3855 13.8115C16.2359 13.6619 16.1518 13.4589 16.1518 13.2473C16.1518 13.0357 16.2359 12.8328 16.3855 12.6831C16.5351 12.5335 16.7381 12.4494 16.9497 12.4494C17.1613 12.4494 17.3642 12.5335 17.5139 12.6831C17.6635 12.8328 17.7476 13.0357 17.7476 13.2473ZM15.3539 15.641C15.5655 15.641 15.7685 15.5569 15.9181 15.4073C16.0677 15.2576 16.1518 15.0547 16.1518 14.8431C16.1518 14.6315 16.0677 14.4285 15.9181 14.2789C15.7685 14.1293 15.5655 14.0452 15.3539 14.0452C15.1423 14.0452 14.9394 14.1293 14.7897 14.2789C14.6401 14.4285 14.556 14.6315 14.556 14.8431C14.556 15.0547 14.6401 15.2576 14.7897 15.4073C14.9394 15.5569 15.1423 15.641 15.3539 15.641ZM19.3433 14.8431C19.3433 15.0547 19.2593 15.2576 19.1096 15.4073C18.96 15.5569 18.7571 15.641 18.5454 15.641C18.3338 15.641 18.1309 15.5569 17.9813 15.4073C17.8316 15.2576 17.7476 15.0547 17.7476 14.8431C17.7476 14.6315 17.8316 14.4285 17.9813 14.2789C18.1309 14.1293 18.3338 14.0452 18.5454 14.0452C18.7571 14.0452 18.96 14.1293 19.1096 14.2789C19.2593 14.4285 19.3433 14.6315 19.3433 14.8431ZM16.9497 17.2367C17.1613 17.2367 17.3642 17.1527 17.5139 17.003C17.6635 16.8534 17.7476 16.6505 17.7476 16.4388C17.7476 16.2272 17.6635 16.0243 17.5139 15.8747C17.3642 15.725 17.1613 15.641 16.9497 15.641C16.7381 15.641 16.5351 15.725 16.3855 15.8747C16.2359 16.0243 16.1518 16.2272 16.1518 16.4388C16.1518 16.6505 16.2359 16.8534 16.3855 17.003C16.5351 17.1527 16.7381 17.2367 16.9497 17.2367ZM6.57721 12.4494H8.17297V14.0452H9.76874V15.641H8.17297V17.2367H6.57721V15.641H4.98145V14.0452H6.57721V12.4494Z" fill="black"/>
<path d="M4.26496 8.83187C4.2377 8.73055 4.2307 8.62484 4.24435 8.52081C4.258 8.41678 4.29204 8.31646 4.34451 8.22559C4.39698 8.13473 4.46686 8.05511 4.55014 7.99129C4.63343 7.92747 4.72848 7.8807 4.82986 7.85367L7.91288 7.02706C8.01887 6.99882 8.12954 6.99273 8.23799 7.00918C8.34643 7.02563 8.45032 7.06426 8.54317 7.12266C8.63601 7.18106 8.71582 7.25798 8.7776 7.34861C8.83939 7.43924 8.88182 7.54164 8.90225 7.64941C9.94748 7.52334 11.0565 7.4627 12.1624 7.4627C13.3113 7.4627 14.4651 7.52813 15.5454 7.66377C15.5641 7.55437 15.6053 7.45006 15.6666 7.35752C15.7278 7.26497 15.8077 7.18622 15.9011 7.1263C15.9946 7.06638 16.0994 7.0266 16.2091 7.00951C16.3188 6.99243 16.4308 6.9984 16.538 7.02706L19.621 7.85367C19.7386 7.88516 19.8475 7.94316 19.9393 8.02323C20.031 8.1033 20.1032 8.20331 20.1504 8.3156C20.1975 8.42789 20.2183 8.54948 20.2112 8.67105C20.2041 8.79263 20.1692 8.91096 20.1093 9.01698C20.3327 9.1606 20.5338 9.32017 20.7045 9.49092C21.3556 10.142 21.9492 11.1665 22.4519 12.3186C22.9625 13.4883 23.4077 14.8575 23.7365 16.2538C24.0652 17.6501 24.279 19.0942 24.3173 20.4123C24.3556 21.7145 24.2232 22.9687 23.7939 23.939C23.5982 24.3746 23.2698 24.7372 22.8557 24.975C22.4416 25.2129 21.9629 25.3138 21.488 25.2635C20.4731 25.1565 19.7088 24.6347 19.0737 24.0299C18.6827 23.6597 18.2822 23.1906 17.8944 22.7406C17.6933 22.5044 17.4954 22.2746 17.3071 22.0655C16.1454 20.7825 14.7587 19.6288 12.1624 19.6288C9.56609 19.6288 8.17937 20.7825 7.01765 22.0655C6.82776 22.2746 6.63148 22.5044 6.43041 22.7406C6.04264 23.1906 5.6421 23.6581 5.25114 24.0299C4.61603 24.6363 3.85166 25.1565 2.83675 25.2635C2.36186 25.3138 1.8832 25.2129 1.4691 24.975C1.055 24.7372 0.726628 24.3746 0.530873 23.939C0.100016 22.9687 -0.0308365 21.7129 0.00586611 20.4123C0.0441644 19.0942 0.261188 17.6517 0.58832 16.2538C0.917047 14.8575 1.36386 13.4883 1.87291 12.3186C2.37558 11.1665 2.9692 10.142 3.61868 9.49092C3.82729 9.28631 4.0592 9.10688 4.30964 8.95634C4.29127 8.91563 4.27633 8.87506 4.26496 8.83187ZM7.51394 9.48932C6.11445 9.78454 5.16976 10.1962 4.74848 10.6191C4.30805 11.0596 3.81176 11.8686 3.33623 12.9569C2.83174 14.1403 2.43233 15.3658 2.14259 16.6192C1.83652 17.8781 1.65532 19.1641 1.60163 20.4586C1.56652 21.6634 1.70057 22.6416 1.9894 23.2927C2.04855 23.4195 2.14591 23.5246 2.26782 23.5933C2.38973 23.662 2.53009 23.6908 2.6692 23.6757C3.19101 23.6214 3.64261 23.3581 4.15166 22.8746C4.48996 22.5523 4.78997 22.1996 5.13306 21.799C5.34529 21.5501 5.57349 21.2836 5.83519 20.9948C7.15329 19.5379 8.93576 18.0346 12.1624 18.0346C15.389 18.0346 17.1715 19.5379 18.4896 20.9948C18.7513 21.2836 18.9795 21.5501 19.1917 21.799C19.5332 22.1996 19.8348 22.5523 20.1731 22.8746C20.6806 23.3581 21.1322 23.6214 21.6556 23.6773C21.7949 23.6922 21.9354 23.6632 22.0573 23.5942C22.1792 23.5252 22.2765 23.4198 22.3354 23.2927C22.6226 22.6416 22.7583 21.665 22.7232 20.4586C22.6694 19.1641 22.4882 17.8781 22.1822 16.6192C21.8924 15.3658 21.493 14.1403 20.9886 12.9569C20.513 11.8686 20.0152 11.058 19.5763 10.6191C19.155 10.1962 18.2103 9.78454 16.8109 9.48932C15.4545 9.20368 13.8156 9.05847 12.1624 9.05847C10.5092 9.05847 8.87034 9.20368 7.51394 9.48932Z" fill="black"/>
</svg>
