<svg width="17" height="17" viewBox="0 0 17 17" fill="none" xmlns="http://www.w3.org/2000/svg">
<rect width="17" height="17" rx="8.5" fill="white"/>
<path d="M8.90464 7.69047C10.3577 7.69047 11.5356 6.51255 11.5356 5.05951C11.5356 3.60648 10.3577 2.42856 8.90464 2.42856C7.4516 2.42856 6.27368 3.60648 6.27368 5.05951C6.27368 6.51255 7.4516 7.69047 8.90464 7.69047Z" stroke="black" stroke-width="0.986608"/>
<path d="M14.1647 12.9524C14.1666 12.8445 14.1666 12.7347 14.1666 12.6235C14.1666 10.989 11.8106 9.6637 8.90473 9.6637C5.99884 9.6637 3.64282 10.989 3.64282 12.6235C3.64282 14.258 3.64282 15.5833 8.90473 15.5833C10.3721 15.5833 11.4304 15.4801 12.1934 15.2959" stroke="black" stroke-width="0.986608" stroke-linecap="round"/>
</svg>
