<svg width="27" height="24" viewBox="0 0 27 24" fill="none" xmlns="http://www.w3.org/2000/svg">
<path fill-rule="evenodd" clip-rule="evenodd" d="M6.13212 12C6.13212 10.0772 6.95873 8.23312 8.43012 6.87348C9.90151 5.51384 11.8971 4.75 13.978 4.75C16.0589 4.75 18.0545 5.51384 19.5259 6.87348C20.9973 8.23312 21.8239 10.0772 21.8239 12C21.8239 12.034 21.8261 12.067 21.8304 12.1C21.8268 12.1316 21.8253 12.1633 21.8261 12.195C21.8336 12.45 21.7979 12.845 21.707 13.222C21.6096 13.633 21.4798 13.869 21.4051 13.942C21.2433 14.0989 21.0497 14.2248 20.8352 14.3125C20.6208 14.4002 20.3897 14.448 20.1553 14.4532C19.9208 14.4584 19.6876 14.4209 19.4688 14.3428C19.25 14.2647 19.0501 14.1475 18.8803 13.998C18.6563 13.801 18.5925 13.511 18.5752 12.838L18.4496 8.04C18.4445 7.84109 18.354 7.65222 18.1981 7.51494C18.0423 7.37767 17.8338 7.30323 17.6185 7.308C17.4032 7.31277 17.1988 7.39637 17.0503 7.5404C16.9017 7.68443 16.8212 7.87709 16.8263 8.076L16.8447 8.769C16.1559 8.24691 15.3155 7.92446 14.429 7.84213C13.5425 7.7598 12.6495 7.92126 11.8619 8.30623C11.0744 8.69121 10.4275 9.28256 10.0023 10.0061C9.57719 10.7296 9.39279 11.553 9.47227 12.373C9.55175 13.193 9.89156 13.973 10.4491 14.6152C11.0066 15.2573 11.7569 15.7331 12.6059 15.9826C13.455 16.2321 14.3649 16.2444 15.2214 16.0178C16.0779 15.7912 16.843 15.3359 17.4205 14.709C17.5146 14.839 17.6261 14.966 17.7613 15.084C18.4158 15.6602 19.2911 15.9727 20.1948 15.9526C21.0985 15.9325 21.9566 15.5816 22.5803 14.977C22.9808 14.589 23.1831 14.002 23.2924 13.547C23.4017 13.0914 23.4544 12.6257 23.4493 12.159C23.4488 12.1316 23.4466 12.1042 23.4429 12.077C23.4457 12.0514 23.4471 12.0257 23.4472 12C23.4471 10.0201 22.7204 8.09873 21.3857 6.54985C20.0511 5.00098 18.1874 3.91615 16.0992 3.47263C14.011 3.02911 11.8218 3.25312 9.88917 4.10805C7.95658 4.96299 6.3949 6.3983 5.45929 8.17948C4.52368 9.96065 4.26946 11.9824 4.73817 13.9143C5.20687 15.8463 6.37079 17.5743 8.03975 18.8159C9.70871 20.0575 11.784 20.7394 13.9267 20.7501C16.0693 20.7609 18.1525 20.0998 19.8359 18.875C19.9995 18.7503 20.1038 18.5713 20.1265 18.3765C20.1491 18.1816 20.0883 17.9863 19.957 17.8323C19.8258 17.6783 19.6345 17.578 19.4242 17.5527C19.2138 17.5274 19.0012 17.5792 18.8316 17.697C17.6745 18.5389 16.2842 19.0628 14.8199 19.2089C13.3556 19.3549 11.8764 19.1172 10.5515 18.5228C9.22657 17.9284 8.10945 17.0015 7.3279 15.848C6.54636 14.6944 6.13196 13.3609 6.13212 12ZM13.978 9.321C13.2091 9.321 12.4717 9.60325 11.928 10.1057C11.3843 10.6081 11.0788 11.2895 11.0788 12C11.0788 12.7105 11.3843 13.3919 11.928 13.8943C12.4717 14.3967 13.2091 14.679 13.978 14.679C14.7469 14.679 15.4843 14.3967 16.028 13.8943C16.5717 13.3919 16.8772 12.7105 16.8772 12C16.8772 11.2895 16.5717 10.6081 16.028 10.1057C15.4843 9.60325 14.7469 9.321 13.978 9.321Z" fill="black"/>
</svg>
