<svg width="27" height="24" viewBox="0 0 27 24" fill="none" xmlns="http://www.w3.org/2000/svg">
<path d="M13.9726 17C13.3986 17 12.848 16.7893 12.4421 16.4142C12.0362 16.0391 11.8082 15.5304 11.8082 15C11.8082 13.89 12.7714 13 13.9726 13C14.5466 13 15.0971 13.2107 15.503 13.5858C15.9089 13.9609 16.137 14.4696 16.137 15C16.137 15.5304 15.9089 16.0391 15.503 16.4142C15.0971 16.7893 14.5466 17 13.9726 17ZM20.4657 20V10H7.47945V20H20.4657ZM20.4657 8C21.0398 8 21.5903 8.21071 21.9962 8.58579C22.4021 8.96086 22.6301 9.46957 22.6301 10V20C22.6301 20.5304 22.4021 21.0391 21.9962 21.4142C21.5903 21.7893 21.0398 22 20.4657 22H7.47945C6.90542 22 6.3549 21.7893 5.949 21.4142C5.5431 21.0391 5.31506 20.5304 5.31506 20V10C5.31506 8.89 6.27821 8 7.47945 8H8.56164V6C8.56164 4.67392 9.13172 3.40215 10.1465 2.46447C11.1612 1.52678 12.5375 1 13.9726 1C14.6832 1 15.3868 1.12933 16.0433 1.3806C16.6998 1.63188 17.2963 2.00017 17.7987 2.46447C18.3012 2.92876 18.6997 3.47995 18.9717 4.08658C19.2436 4.69321 19.3836 5.34339 19.3836 6V8H20.4657ZM13.9726 3C13.1116 3 12.2858 3.31607 11.6769 3.87868C11.0681 4.44129 10.726 5.20435 10.726 6V8H17.2192V6C17.2192 5.20435 16.8771 4.44129 16.2683 3.87868C15.6594 3.31607 14.8336 3 13.9726 3Z" fill="black"/>
</svg>
