<svg width="52" height="54" viewBox="0 0 52 54" fill="none" xmlns="http://www.w3.org/2000/svg">
<path d="M51.4928 21.7251C51.8018 23.5038 51.9559 25.3059 51.9533 27.1112C51.9533 35.1739 49.0714 41.991 44.0563 46.6053H44.0629C39.6771 50.6565 33.6484 53.0017 26.5 53.0017C19.4718 53.0017 12.7314 50.2098 7.76167 45.2401C2.79196 40.2704 0 33.53 0 26.5017C0 19.4735 2.79196 12.7331 7.76167 7.76342C12.7314 2.7937 19.4718 0.00174862 26.5 0.00174862C33.0784 -0.0752947 39.4315 2.39613 44.2285 6.89837L36.6628 14.4641C33.9279 11.8571 30.2779 10.4295 26.5 10.4891C19.5868 10.4891 13.7137 15.1531 11.6202 21.4336C10.5103 24.7246 10.5103 28.2888 11.6202 31.5798H11.6302C13.7336 37.8504 19.5968 42.5144 26.5099 42.5144C30.0808 42.5144 33.1482 41.6001 35.5266 39.9836H35.5166C36.8976 39.0687 38.079 37.8835 38.9893 36.4995C39.8996 35.1155 40.5201 33.5614 40.8133 31.9309H26.5V21.7284L51.4928 21.7251Z" fill="black"/>
</svg>
